<?xml version="1.0" encoding="utf-8"?>
<!-- Generator: Adobe Illustrator 15.1.0, SVG Export Plug-In . SVG Version: 6.00 Build 0)  -->
<!DOCTYPE svg PUBLIC "-//W3C//DTD SVG 1.1 Tiny//EN" "http://www.w3.org/Graphics/SVG/1.1/DTD/svg11-tiny.dtd">
<svg version="1.1" baseProfile="tiny" id="Layer_1" xmlns="http://www.w3.org/2000/svg" xmlns:xlink="http://www.w3.org/1999/xlink"
	 x="0px" y="0px" width="27px" height="27px" viewBox="0 0 27 27" overflow="inherit" xml:space="preserve">
<g>
	<path fill="#FFFFFF" d="M13.5,26.5c-7.168,0-13-5.832-13-13s5.832-13,13-13c7.168,0,13,5.832,13,13S20.668,26.5,13.5,26.5z"/>
	<path fill="#231F20" d="M13.5,1C20.393,1,26,6.607,26,13.5S20.393,26,13.5,26S1,20.393,1,13.5S6.607,1,13.5,1 M13.5,0
		C6.044,0,0,6.044,0,13.5S6.044,27,13.5,27S27,20.956,27,13.5S20.956,0,13.5,0L13.5,0z"/>
</g>
<g>
	<g>
		<path d="M7.168,20.145V5.492h0.63v7.902c0.084-0.156,0.195-0.291,0.333-0.406c0.138-0.113,0.291-0.225,0.459-0.332
			c0.168-0.108,0.366-0.191,0.594-0.252c0.228-0.061,0.468-0.09,0.72-0.09c0.336,0,0.633,0.051,0.891,0.152
			c0.259,0.103,0.486,0.24,0.685,0.414s0.351,0.394,0.459,0.657c0.108,0.265,0.162,0.528,0.162,0.792
			c0,0.492-0.145,1.012-0.433,1.557c-0.287,0.547-0.768,1.102-1.439,1.665c-0.048,0.061-0.145,0.147-0.288,0.261
			c-0.144,0.115-0.3,0.25-0.468,0.405c-0.168,0.156-0.351,0.306-0.549,0.45c-0.198,0.145-0.378,0.285-0.54,0.423
			s-0.294,0.255-0.396,0.351c-0.102,0.097-0.165,0.15-0.189,0.162c-0.252,0.217-0.417,0.36-0.495,0.433
			C7.225,20.107,7.18,20.145,7.168,20.145z M7.798,19.172c0.156-0.18,0.36-0.398,0.612-0.656c0.252-0.258,0.528-0.562,0.828-0.91
			c0.384-0.396,0.648-0.765,0.792-1.106c0.145-0.342,0.216-0.633,0.216-0.873c0-0.312-0.099-0.567-0.297-0.765
			c-0.197-0.198-0.435-0.297-0.711-0.297c-0.228,0-0.429,0.051-0.603,0.152c-0.174,0.103-0.327,0.219-0.459,0.352
			c-0.156,0.144-0.282,0.3-0.378,0.468V19.172z"/>
	</g>
	<g>
		<path d="M18.878,9.11c-0.372-0.348-0.864-0.522-1.477-0.522c-0.647,0-1.17,0.159-1.565,0.477c-0.396,0.318-0.705,0.72-0.927,1.207
			c-0.223,0.485-0.376,1.011-0.459,1.574c-0.085,0.564-0.133,1.092-0.145,1.584l0.036,0.036c0.36-0.587,0.807-1.014,1.341-1.278
			c0.534-0.264,1.149-0.396,1.845-0.396c0.612,0,1.161,0.104,1.647,0.315c0.486,0.209,0.894,0.501,1.224,0.873
			c0.33,0.371,0.585,0.81,0.766,1.313c0.18,0.504,0.27,1.05,0.27,1.638c0,0.469-0.072,0.955-0.216,1.459s-0.381,0.963-0.711,1.377
			s-0.769,0.756-1.314,1.025s-1.221,0.405-2.024,0.405c-0.948,0-1.71-0.192-2.286-0.576s-1.021-0.876-1.332-1.476
			c-0.312-0.601-0.52-1.26-0.621-1.98s-0.153-1.416-0.153-2.088c0-0.876,0.075-1.725,0.226-2.547
			c0.149-0.822,0.405-1.551,0.765-2.187c0.36-0.636,0.84-1.146,1.44-1.53c0.6-0.384,1.355-0.576,2.268-0.576
			c1.056,0,1.896,0.279,2.521,0.837c0.623,0.558,0.983,1.365,1.08,2.421h-1.53C19.472,9.92,19.25,9.458,18.878,9.11z M16.105,13.367
			c-0.323,0.15-0.6,0.354-0.828,0.611c-0.228,0.259-0.398,0.564-0.513,0.918c-0.114,0.354-0.171,0.729-0.171,1.125
			c0,0.396,0.06,0.769,0.18,1.117c0.12,0.348,0.291,0.647,0.514,0.899c0.222,0.252,0.497,0.453,0.828,0.603
			c0.329,0.15,0.704,0.226,1.125,0.226c0.42,0,0.788-0.075,1.106-0.226c0.318-0.149,0.585-0.356,0.801-0.621
			c0.217-0.264,0.381-0.566,0.495-0.908s0.171-0.699,0.171-1.071c0-0.396-0.051-0.771-0.152-1.125
			c-0.103-0.354-0.262-0.659-0.478-0.918c-0.216-0.258-0.485-0.465-0.81-0.621c-0.324-0.155-0.702-0.233-1.134-0.233
			C16.808,13.143,16.43,13.217,16.105,13.367z"/>
	</g>
</g>
</svg>
