<?xml version="1.0" encoding="utf-8"?>
<!-- Generator: Adobe Illustrator 15.1.0, SVG Export Plug-In . SVG Version: 6.00 Build 0)  -->
<!DOCTYPE svg PUBLIC "-//W3C//DTD SVG 1.1 Tiny//EN" "http://www.w3.org/Graphics/SVG/1.1/DTD/svg11-tiny.dtd">
<svg version="1.1" baseProfile="tiny" id="Layer_1" xmlns="http://www.w3.org/2000/svg" xmlns:xlink="http://www.w3.org/1999/xlink"
	 x="0px" y="0px" width="27px" height="27px" viewBox="0 0 27 27" overflow="inherit" xml:space="preserve">
<g>
	<path fill="#FFFFFF" d="M13.5,26.5c-7.168,0-13-5.832-13-13s5.832-13,13-13c7.168,0,13,5.832,13,13S20.668,26.5,13.5,26.5z"/>
	<path fill="#231F20" d="M13.5,1C20.393,1,26,6.607,26,13.5S20.393,26,13.5,26S1,20.393,1,13.5S6.607,1,13.5,1 M13.5,0
		C6.044,0,0,6.044,0,13.5S6.044,27,13.5,27S27,20.956,27,13.5S20.956,0,13.5,0L13.5,0z"/>
</g>
<g>
	<g>
		<path d="M7.168,20.145V5.492h0.63v7.902c0.084-0.156,0.195-0.291,0.333-0.406c0.138-0.113,0.291-0.225,0.459-0.332
			c0.168-0.108,0.366-0.191,0.594-0.252c0.228-0.061,0.468-0.09,0.72-0.09c0.336,0,0.633,0.051,0.891,0.152
			c0.259,0.103,0.486,0.24,0.685,0.414s0.351,0.394,0.459,0.657c0.108,0.265,0.162,0.528,0.162,0.792
			c0,0.492-0.145,1.012-0.433,1.557c-0.287,0.547-0.768,1.102-1.439,1.665c-0.048,0.061-0.145,0.147-0.288,0.261
			c-0.144,0.115-0.3,0.25-0.468,0.405c-0.168,0.156-0.351,0.306-0.549,0.45c-0.198,0.145-0.378,0.285-0.54,0.423
			s-0.294,0.255-0.396,0.351c-0.102,0.097-0.165,0.15-0.189,0.162c-0.252,0.217-0.417,0.36-0.495,0.433
			C7.225,20.107,7.18,20.145,7.168,20.145z M7.798,19.172c0.156-0.18,0.36-0.398,0.612-0.656c0.252-0.258,0.528-0.562,0.828-0.91
			c0.384-0.396,0.648-0.765,0.792-1.106c0.145-0.342,0.216-0.633,0.216-0.873c0-0.312-0.099-0.567-0.297-0.765
			c-0.197-0.198-0.435-0.297-0.711-0.297c-0.228,0-0.429,0.051-0.603,0.152c-0.174,0.103-0.327,0.219-0.459,0.352
			c-0.156,0.144-0.282,0.3-0.378,0.468V19.172z"/>
	</g>
	<g>
		<path d="M15.403,8.804l-0.684,3.672l0.036,0.035c0.275-0.312,0.633-0.543,1.071-0.693c0.438-0.149,0.873-0.225,1.305-0.225
			c0.563,0,1.098,0.09,1.602,0.27c0.505,0.181,0.942,0.453,1.314,0.82c0.372,0.365,0.666,0.821,0.882,1.367
			c0.216,0.547,0.324,1.186,0.324,1.917c0,0.54-0.093,1.065-0.279,1.575c-0.186,0.51-0.465,0.963-0.837,1.359
			c-0.372,0.396-0.837,0.711-1.395,0.945c-0.559,0.233-1.209,0.351-1.953,0.351c-0.553,0-1.071-0.081-1.558-0.243
			c-0.485-0.162-0.915-0.396-1.287-0.702s-0.665-0.687-0.882-1.144c-0.216-0.455-0.33-0.971-0.342-1.547h1.53
			c0.023,0.324,0.104,0.627,0.243,0.908c0.138,0.282,0.323,0.528,0.558,0.738s0.51,0.372,0.828,0.486
			c0.317,0.113,0.669,0.171,1.053,0.171c0.36,0,0.705-0.063,1.035-0.189s0.618-0.315,0.864-0.567
			c0.245-0.252,0.44-0.566,0.585-0.944c0.144-0.378,0.216-0.819,0.216-1.323c0-0.42-0.069-0.807-0.207-1.16
			c-0.138-0.354-0.333-0.66-0.585-0.918c-0.252-0.259-0.556-0.459-0.909-0.604s-0.747-0.217-1.179-0.217
			c-0.504,0-0.951,0.111-1.341,0.334c-0.391,0.222-0.735,0.513-1.035,0.873l-1.314-0.072l1.188-6.624h6.3v1.35H15.403z"/>
	</g>
</g>
</svg>
