<?xml version="1.0" encoding="utf-8"?>
<!-- Generator: Adobe Illustrator 15.1.0, SVG Export Plug-In . SVG Version: 6.00 Build 0)  -->
<!DOCTYPE svg PUBLIC "-//W3C//DTD SVG 1.1 Tiny//EN" "http://www.w3.org/Graphics/SVG/1.1/DTD/svg11-tiny.dtd">
<svg version="1.1" baseProfile="tiny" id="Layer_1" xmlns="http://www.w3.org/2000/svg" xmlns:xlink="http://www.w3.org/1999/xlink"
	 x="0px" y="0px" width="27px" height="27px" viewBox="0 0 27 27" overflow="inherit" xml:space="preserve">
<g>
	<path fill="#FFFFFF" d="M13.5,26.5c-7.168,0-13-5.832-13-13s5.832-13,13-13c7.168,0,13,5.832,13,13S20.668,26.5,13.5,26.5z"/>
	<path fill="#231F20" d="M13.5,1C20.393,1,26,6.607,26,13.5S20.393,26,13.5,26S1,20.393,1,13.5S6.607,1,13.5,1 M13.5,0
		C6.044,0,0,6.044,0,13.5S6.044,27,13.5,27S27,20.956,27,13.5S20.956,0,13.5,0L13.5,0z"/>
</g>
<g>
	<g>
		<path d="M7.168,20.145V5.492h0.63v7.902c0.084-0.156,0.195-0.291,0.333-0.406c0.138-0.113,0.291-0.225,0.459-0.332
			c0.168-0.108,0.366-0.191,0.594-0.252c0.228-0.061,0.468-0.09,0.72-0.09c0.336,0,0.633,0.051,0.891,0.152
			c0.259,0.103,0.486,0.24,0.685,0.414s0.351,0.394,0.459,0.657c0.108,0.265,0.162,0.528,0.162,0.792
			c0,0.492-0.145,1.012-0.433,1.557c-0.287,0.547-0.768,1.102-1.439,1.665c-0.048,0.061-0.145,0.147-0.288,0.261
			c-0.144,0.115-0.3,0.25-0.468,0.405c-0.168,0.156-0.351,0.306-0.549,0.45c-0.198,0.145-0.378,0.285-0.54,0.423
			s-0.294,0.255-0.396,0.351c-0.102,0.097-0.165,0.15-0.189,0.162c-0.252,0.217-0.417,0.36-0.495,0.433
			C7.225,20.107,7.18,20.145,7.168,20.145z M7.798,19.172c0.156-0.18,0.36-0.398,0.612-0.656c0.252-0.258,0.528-0.562,0.828-0.91
			c0.384-0.396,0.648-0.765,0.792-1.106c0.145-0.342,0.216-0.633,0.216-0.873c0-0.312-0.099-0.567-0.297-0.765
			c-0.197-0.198-0.435-0.297-0.711-0.297c-0.228,0-0.429,0.051-0.603,0.152c-0.174,0.103-0.327,0.219-0.459,0.352
			c-0.156,0.144-0.282,0.3-0.378,0.468V19.172z"/>
	</g>
	<g>
		<path d="M13.082,9.956c0.168-0.552,0.429-1.029,0.783-1.431c0.354-0.402,0.794-0.717,1.322-0.945s1.128-0.342,1.801-0.342
			c0.552,0,1.07,0.081,1.557,0.243s0.909,0.396,1.269,0.702c0.36,0.306,0.646,0.687,0.855,1.143s0.314,0.984,0.314,1.584
			c0,0.564-0.087,1.062-0.261,1.494s-0.405,0.818-0.692,1.16c-0.288,0.343-0.619,0.652-0.99,0.928
			c-0.372,0.275-0.756,0.54-1.152,0.792c-0.396,0.24-0.792,0.478-1.188,0.711c-0.396,0.233-0.76,0.483-1.09,0.747
			s-0.611,0.549-0.846,0.855c-0.233,0.305-0.387,0.656-0.459,1.053h6.552V20h-8.334c0.061-0.756,0.195-1.4,0.405-1.936
			c0.21-0.533,0.478-0.998,0.801-1.395c0.324-0.396,0.69-0.744,1.099-1.044c0.407-0.3,0.834-0.582,1.277-0.847
			c0.54-0.335,1.015-0.645,1.422-0.926c0.408-0.282,0.747-0.567,1.018-0.855c0.27-0.288,0.474-0.6,0.612-0.936
			c0.138-0.336,0.207-0.727,0.207-1.17c0-0.349-0.066-0.664-0.198-0.946c-0.133-0.282-0.31-0.524-0.531-0.729
			c-0.222-0.204-0.483-0.36-0.783-0.468s-0.618-0.162-0.954-0.162c-0.443,0-0.825,0.093-1.143,0.279
			c-0.318,0.186-0.579,0.429-0.783,0.729s-0.351,0.638-0.44,1.017c-0.091,0.378-0.13,0.759-0.117,1.143h-1.53
			C12.848,11.107,12.914,10.508,13.082,9.956z"/>
	</g>
</g>
</svg>
