<?xml version="1.0" encoding="utf-8"?>
<!-- Generator: Adobe Illustrator 15.1.0, SVG Export Plug-In . SVG Version: 6.00 Build 0)  -->
<!DOCTYPE svg PUBLIC "-//W3C//DTD SVG 1.1 Tiny//EN" "http://www.w3.org/Graphics/SVG/1.1/DTD/svg11-tiny.dtd">
<svg version="1.1" baseProfile="tiny" id="Layer_1" xmlns="http://www.w3.org/2000/svg" xmlns:xlink="http://www.w3.org/1999/xlink"
	 x="0px" y="0px" width="27px" height="27px" viewBox="0 0 27 27" overflow="inherit" xml:space="preserve">
<g>
	<path fill="#FFFFFF" d="M13.5,26.5c-7.168,0-13-5.832-13-13s5.832-13,13-13c7.168,0,13,5.832,13,13S20.668,26.5,13.5,26.5z"/>
	<path fill="#231F20" d="M13.5,1C20.393,1,26,6.607,26,13.5S20.393,26,13.5,26S1,20.393,1,13.5S6.607,1,13.5,1 M13.5,0
		C6.044,0,0,6.044,0,13.5S6.044,27,13.5,27S27,20.956,27,13.5S20.956,0,13.5,0L13.5,0z"/>
</g>
<g>
	<g>
		<path d="M7.168,20.145V5.492h0.63v7.902c0.084-0.156,0.195-0.291,0.333-0.406c0.138-0.113,0.291-0.225,0.459-0.332
			c0.168-0.108,0.366-0.191,0.594-0.252c0.228-0.061,0.468-0.09,0.72-0.09c0.336,0,0.633,0.051,0.891,0.152
			c0.259,0.103,0.486,0.24,0.685,0.414s0.351,0.394,0.459,0.657c0.108,0.265,0.162,0.528,0.162,0.792
			c0,0.492-0.145,1.012-0.433,1.557c-0.287,0.547-0.768,1.102-1.439,1.665c-0.048,0.061-0.145,0.147-0.288,0.261
			c-0.144,0.115-0.3,0.25-0.468,0.405c-0.168,0.156-0.351,0.306-0.549,0.45c-0.198,0.145-0.378,0.285-0.54,0.423
			s-0.294,0.255-0.396,0.351c-0.102,0.097-0.165,0.15-0.189,0.162c-0.252,0.217-0.417,0.36-0.495,0.433
			C7.225,20.107,7.18,20.145,7.168,20.145z M7.798,19.172c0.156-0.18,0.36-0.398,0.612-0.656c0.252-0.258,0.528-0.562,0.828-0.91
			c0.384-0.396,0.648-0.765,0.792-1.106c0.145-0.342,0.216-0.633,0.216-0.873c0-0.312-0.099-0.567-0.297-0.765
			c-0.197-0.198-0.435-0.297-0.711-0.297c-0.228,0-0.429,0.051-0.603,0.152c-0.174,0.103-0.327,0.219-0.459,0.352
			c-0.156,0.144-0.282,0.3-0.378,0.468V19.172z"/>
	</g>
	<g>
		<path d="M16.178,12.729c0.06,0,0.12,0,0.18,0h0.324c0.324,0,0.633-0.045,0.927-0.136c0.294-0.09,0.552-0.222,0.774-0.396
			c0.222-0.174,0.398-0.393,0.531-0.657c0.132-0.264,0.197-0.563,0.197-0.899c0-0.685-0.216-1.198-0.647-1.54
			c-0.432-0.342-0.972-0.513-1.62-0.513c-0.408,0-0.765,0.075-1.071,0.225c-0.306,0.15-0.558,0.351-0.756,0.603
			s-0.345,0.546-0.44,0.882c-0.097,0.337-0.145,0.69-0.145,1.062h-1.53c0.024-0.611,0.123-1.17,0.298-1.673
			c0.174-0.504,0.423-0.936,0.746-1.296c0.324-0.36,0.729-0.642,1.216-0.846c0.485-0.204,1.047-0.306,1.683-0.306
			c0.552,0,1.064,0.069,1.539,0.207c0.474,0.138,0.885,0.345,1.233,0.621c0.348,0.276,0.62,0.63,0.818,1.062s0.297,0.942,0.297,1.53
			c0,0.576-0.168,1.086-0.504,1.529c-0.336,0.445-0.756,0.781-1.26,1.008v0.037c0.78,0.168,1.359,0.533,1.737,1.098
			s0.566,1.23,0.566,1.998c0,0.637-0.116,1.197-0.351,1.684c-0.234,0.485-0.549,0.891-0.945,1.215
			c-0.396,0.323-0.861,0.566-1.395,0.729c-0.534,0.162-1.102,0.243-1.701,0.243c-0.648,0-1.236-0.091-1.764-0.271
			c-0.528-0.18-0.979-0.447-1.351-0.801s-0.657-0.789-0.854-1.305c-0.198-0.516-0.291-1.104-0.279-1.764h1.53
			c0.023,0.828,0.264,1.502,0.72,2.024s1.122,0.783,1.998,0.783c0.372,0,0.726-0.058,1.062-0.171
			c0.336-0.114,0.631-0.276,0.883-0.486s0.452-0.468,0.603-0.773c0.15-0.307,0.225-0.651,0.225-1.035
			c0-0.396-0.071-0.748-0.216-1.053c-0.144-0.307-0.336-0.564-0.576-0.774s-0.524-0.366-0.854-0.468s-0.688-0.153-1.071-0.153
			c-0.324,0-0.63,0.019-0.918,0.054V12.71C16.076,12.723,16.13,12.729,16.178,12.729z"/>
	</g>
</g>
</svg>
