<?xml version="1.0" encoding="utf-8"?>
<!-- Generator: Adobe Illustrator 15.1.0, SVG Export Plug-In . SVG Version: 6.00 Build 0)  -->
<!DOCTYPE svg PUBLIC "-//W3C//DTD SVG 1.1 Tiny//EN" "http://www.w3.org/Graphics/SVG/1.1/DTD/svg11-tiny.dtd">
<svg version="1.1" baseProfile="tiny" id="Layer_1" xmlns="http://www.w3.org/2000/svg" xmlns:xlink="http://www.w3.org/1999/xlink"
	 x="0px" y="0px" width="27px" height="27px" viewBox="0 0 27 27" overflow="inherit" xml:space="preserve">
<g>
	<path fill="#FFFFFF" d="M13.5,26.5c-7.168,0-13-5.832-13-13s5.832-13,13-13c7.168,0,13,5.832,13,13S20.668,26.5,13.5,26.5z"/>
	<path fill="#231F20" d="M13.5,1C20.393,1,26,6.607,26,13.5S20.393,26,13.5,26S1,20.393,1,13.5S6.607,1,13.5,1 M13.5,0
		C6.044,0,0,6.044,0,13.5S6.044,27,13.5,27S27,20.956,27,13.5S20.956,0,13.5,0L13.5,0z"/>
</g>
<g>
	<path d="M19.188,16.228v1.8h-2.305v3.984h-1.92v-3.984H7.5V16.06l7.752-11.064h1.632v11.232H19.188z M14.964,7.9h-0.048
		l-5.664,8.328h5.712V7.9z"/>
</g>
</svg>
