<?xml version="1.0" encoding="utf-8"?>
<!-- Generator: Adobe Illustrator 15.1.0, SVG Export Plug-In . SVG Version: 6.00 Build 0)  -->
<!DOCTYPE svg PUBLIC "-//W3C//DTD SVG 1.1 Tiny//EN" "http://www.w3.org/Graphics/SVG/1.1/DTD/svg11-tiny.dtd">
<svg version="1.1" baseProfile="tiny" id="Layer_1" xmlns="http://www.w3.org/2000/svg" xmlns:xlink="http://www.w3.org/1999/xlink"
	 x="0px" y="0px" width="27px" height="27px" viewBox="0 0 27 27" overflow="inherit" xml:space="preserve">
<g>
	<path fill="#FFFFFF" d="M13.5,26.5c-7.168,0-13-5.832-13-13s5.832-13,13-13c7.168,0,13,5.832,13,13S20.668,26.5,13.5,26.5z"/>
	<path fill="#231F20" d="M13.5,1C20.393,1,26,6.607,26,13.5S20.393,26,13.5,26S1,20.393,1,13.5S6.607,1,13.5,1 M13.5,0
		C6.044,0,0,6.044,0,13.5S6.044,27,13.5,27S27,20.956,27,13.5S20.956,0,13.5,0L13.5,0z"/>
</g>
<g>
	<path d="M11.052,19.828c0.592,0.447,1.296,0.672,2.112,0.672c1.248,0,2.184-0.54,2.808-1.62s0.969-2.731,1.032-4.956l-0.048-0.049
		c-0.384,0.721-0.928,1.293-1.632,1.717s-1.473,0.636-2.304,0.636c-0.864,0-1.633-0.14-2.305-0.42S9.48,15.14,9.024,14.644
		c-0.456-0.495-0.801-1.096-1.032-1.8c-0.232-0.704-0.348-1.472-0.348-2.305c0-0.815,0.136-1.563,0.407-2.243
		c0.272-0.68,0.656-1.264,1.152-1.752c0.496-0.488,1.088-0.868,1.776-1.14c0.688-0.272,1.439-0.408,2.256-0.408
		c0.8,0,1.552,0.124,2.256,0.372c0.704,0.249,1.32,0.676,1.848,1.284c0.528,0.608,0.948,1.436,1.261,2.484
		c0.312,1.048,0.468,2.38,0.468,3.996c0,2.944-0.468,5.204-1.404,6.78c-0.936,1.576-2.436,2.363-4.5,2.363
		c-1.424,0-2.608-0.359-3.552-1.08c-0.944-0.72-1.48-1.815-1.608-3.287h2.04C10.124,18.74,10.46,19.38,11.052,19.828z M16.416,9.196
		C16.264,8.732,16.04,8.32,15.744,7.96c-0.296-0.36-0.66-0.644-1.092-0.852C14.22,6.9,13.716,6.796,13.14,6.796
		c-0.607,0-1.124,0.112-1.548,0.336s-0.768,0.524-1.031,0.9c-0.265,0.376-0.456,0.804-0.576,1.284S9.804,10.3,9.804,10.828
		c0,0.464,0.084,0.912,0.252,1.344c0.169,0.432,0.4,0.816,0.696,1.152s0.648,0.604,1.057,0.804c0.407,0.2,0.859,0.3,1.355,0.3
		c0.528,0,1.008-0.1,1.44-0.3c0.432-0.2,0.8-0.472,1.104-0.816c0.304-0.344,0.536-0.743,0.696-1.2
		c0.159-0.455,0.24-0.932,0.24-1.428C16.645,10.156,16.568,9.66,16.416,9.196z"/>
</g>
</svg>
