<?xml version="1.0" encoding="utf-8"?>
<!-- Generator: Adobe Illustrator 15.1.0, SVG Export Plug-In . SVG Version: 6.00 Build 0)  -->
<!DOCTYPE svg PUBLIC "-//W3C//DTD SVG 1.1 Tiny//EN" "http://www.w3.org/Graphics/SVG/1.1/DTD/svg11-tiny.dtd">
<svg version="1.1" baseProfile="tiny" id="Layer_1" xmlns="http://www.w3.org/2000/svg" xmlns:xlink="http://www.w3.org/1999/xlink"
	 x="0px" y="0px" width="27px" height="27px" viewBox="0 0 27 27" overflow="inherit" xml:space="preserve">
<g>
	<path fill="#FFFFFF" d="M13.5,26.5c-7.168,0-13-5.832-13-13s5.832-13,13-13c7.168,0,13,5.832,13,13S20.668,26.5,13.5,26.5z"/>
	<path fill="#231F20" d="M13.5,1C20.393,1,26,6.607,26,13.5S20.393,26,13.5,26S1,20.393,1,13.5S6.607,1,13.5,1 M13.5,0
		C6.044,0,0,6.044,0,13.5S6.044,27,13.5,27S27,20.956,27,13.5S20.956,0,13.5,0L13.5,0z"/>
</g>
<g>
	<path d="M16.62,10.06c-0.752,1.169-1.42,2.417-2.004,3.744c-0.584,1.328-1.061,2.696-1.428,4.104
		c-0.368,1.408-0.593,2.775-0.672,4.104h-2.28c0.096-1.439,0.332-2.844,0.708-4.212s0.859-2.68,1.452-3.937
		c0.592-1.256,1.275-2.443,2.052-3.563c0.775-1.12,1.611-2.152,2.508-3.096H8.028v-1.92h11.016v1.752
		C18.18,7.884,17.372,8.892,16.62,10.06z"/>
</g>
</svg>
