<?xml version="1.0" encoding="utf-8"?>
<!-- Generator: Adobe Illustrator 15.1.0, SVG Export Plug-In . SVG Version: 6.00 Build 0)  -->
<!DOCTYPE svg PUBLIC "-//W3C//DTD SVG 1.1 Tiny//EN" "http://www.w3.org/Graphics/SVG/1.1/DTD/svg11-tiny.dtd">
<svg version="1.1" baseProfile="tiny" id="Layer_1" xmlns="http://www.w3.org/2000/svg" xmlns:xlink="http://www.w3.org/1999/xlink"
	 x="0px" y="0px" width="27px" height="27px" viewBox="0 0 27 27" overflow="inherit" xml:space="preserve">
<g>
	<path fill="#FFFFFF" d="M13.5,26.5c-7.168,0-13-5.832-13-13s5.832-13,13-13c7.168,0,13,5.832,13,13S20.668,26.5,13.5,26.5z"/>
	<path fill="#231F20" d="M13.5,1C20.393,1,26,6.607,26,13.5S20.393,26,13.5,26S1,20.393,1,13.5S6.607,1,13.5,1 M13.5,0
		C6.044,0,0,6.044,0,13.5S6.044,27,13.5,27S27,20.956,27,13.5S20.956,0,13.5,0L13.5,0z"/>
</g>
<g>
	<g>
		<path d="M4.482,20v-2.952L2.7,17.408v-1.674l1.782-0.36v-2.808L2.7,12.926v-1.674l1.782-0.396V8.048L5.22,7.922v2.79l1.98-0.45
			v-3.15l0.756-0.126V10.1l1.782-0.377v1.709l-1.782,0.36v2.79l1.782-0.342v1.674l-1.782,0.378v2.646L7.2,19.082v-2.628l-1.98,0.468
			v2.971L4.482,20z M5.22,15.193l1.98-0.449v-2.809l-1.98,0.486V15.193z"/>
	</g>
	<g>
		<path d="M14.365,20v-9.145h-3.312V9.632c0.432,0,0.852-0.033,1.26-0.099c0.407-0.066,0.776-0.189,1.106-0.369
			s0.609-0.426,0.837-0.738c0.229-0.312,0.385-0.708,0.469-1.188h1.17V20H14.365z"/>
	</g>
	<g>
		<path d="M20.574,20v-9.145h-3.312V9.631c0.432,0,0.852-0.033,1.26-0.099c0.407-0.066,0.776-0.189,1.106-0.369
			s0.609-0.426,0.837-0.738c0.229-0.312,0.385-0.708,0.469-1.188h1.17V20H20.574z"/>
	</g>
</g>
</svg>
