<?xml version="1.0" encoding="utf-8"?>
<!-- Generator: Adobe Illustrator 15.1.0, SVG Export Plug-In . SVG Version: 6.00 Build 0)  -->
<!DOCTYPE svg PUBLIC "-//W3C//DTD SVG 1.1 Tiny//EN" "http://www.w3.org/Graphics/SVG/1.1/DTD/svg11-tiny.dtd">
<svg version="1.1" baseProfile="tiny" id="Layer_1" xmlns="http://www.w3.org/2000/svg" xmlns:xlink="http://www.w3.org/1999/xlink"
	 x="0px" y="0px" width="27px" height="27px" viewBox="0 0 27 27" overflow="inherit" xml:space="preserve">
<g>
	<path fill="#FFFFFF" d="M13.5,26.5c-7.168,0-13-5.832-13-13s5.832-13,13-13c7.168,0,13,5.832,13,13S20.668,26.5,13.5,26.5z"/>
	<path fill="#231F20" d="M13.5,1C20.393,1,26,6.607,26,13.5S20.393,26,13.5,26S1,20.393,1,13.5S6.607,1,13.5,1 M13.5,0
		C6.044,0,0,6.044,0,13.5S6.044,27,13.5,27S27,20.956,27,13.5S20.956,0,13.5,0L13.5,0z"/>
</g>
<g>
	<g>
		<path d="M7.086,20v-2.952l-1.782,0.36v-1.674l1.782-0.36v-2.808l-1.782,0.359v-1.674l1.782-0.396V8.048l0.738-0.126v2.79
			l1.98-0.45v-3.15l0.756-0.126V10.1l1.782-0.377v1.709l-1.782,0.36v2.79l1.782-0.342v1.674l-1.782,0.378v2.646l-0.756,0.145v-2.628
			l-1.98,0.468v2.971L7.086,20z M7.824,15.193l1.98-0.449v-2.809l-1.98,0.486V15.193z"/>
	</g>
	<g>
		<path d="M16.403,8.804l-0.684,3.672l0.036,0.035c0.275-0.312,0.633-0.543,1.071-0.693c0.438-0.149,0.873-0.225,1.305-0.225
			c0.563,0,1.098,0.09,1.602,0.27c0.505,0.181,0.942,0.453,1.314,0.82c0.372,0.365,0.666,0.821,0.882,1.367
			c0.216,0.547,0.324,1.186,0.324,1.917c0,0.54-0.093,1.065-0.279,1.575c-0.186,0.51-0.465,0.963-0.837,1.359
			c-0.372,0.396-0.837,0.711-1.395,0.945c-0.559,0.233-1.209,0.351-1.953,0.351c-0.553,0-1.071-0.081-1.558-0.243
			c-0.485-0.162-0.915-0.396-1.287-0.702s-0.665-0.687-0.882-1.144c-0.216-0.455-0.33-0.971-0.342-1.547h1.53
			c0.023,0.324,0.104,0.627,0.243,0.908c0.138,0.282,0.323,0.528,0.558,0.738s0.51,0.372,0.828,0.486
			c0.317,0.113,0.669,0.171,1.053,0.171c0.36,0,0.705-0.063,1.035-0.189s0.618-0.315,0.864-0.567
			c0.245-0.252,0.44-0.566,0.585-0.944c0.144-0.378,0.216-0.819,0.216-1.323c0-0.42-0.069-0.807-0.207-1.16
			c-0.138-0.354-0.333-0.66-0.585-0.918c-0.252-0.259-0.556-0.459-0.909-0.604s-0.747-0.217-1.179-0.217
			c-0.504,0-0.951,0.111-1.341,0.334c-0.391,0.222-0.735,0.513-1.035,0.873l-1.314-0.072l1.188-6.624h6.3v1.35H16.403z"/>
	</g>
</g>
</svg>
