<?xml version="1.0" encoding="utf-8"?>
<!-- Generator: Adobe Illustrator 15.1.0, SVG Export Plug-In . SVG Version: 6.00 Build 0)  -->
<!DOCTYPE svg PUBLIC "-//W3C//DTD SVG 1.1 Tiny//EN" "http://www.w3.org/Graphics/SVG/1.1/DTD/svg11-tiny.dtd">
<svg version="1.1" baseProfile="tiny" id="Layer_1" xmlns="http://www.w3.org/2000/svg" xmlns:xlink="http://www.w3.org/1999/xlink"
	 x="0px" y="0px" width="27px" height="27px" viewBox="0 0 27 27" overflow="inherit" xml:space="preserve">
<g>
	<path fill="#FFFFFF" d="M13.5,26.5c-7.168,0-13-5.832-13-13s5.832-13,13-13c7.168,0,13,5.832,13,13S20.668,26.5,13.5,26.5z"/>
	<path fill="#231F20" d="M13.5,1C20.393,1,26,6.607,26,13.5S20.393,26,13.5,26S1,20.393,1,13.5S6.607,1,13.5,1 M13.5,0
		C6.044,0,0,6.044,0,13.5S6.044,27,13.5,27S27,20.956,27,13.5S20.956,0,13.5,0L13.5,0z"/>
</g>
<g>
	<g>
		<path d="M7.086,20v-2.952l-1.782,0.36v-1.674l1.782-0.36v-2.808l-1.782,0.359v-1.674l1.782-0.396V8.048l0.738-0.126v2.79
			l1.98-0.45v-3.15l0.756-0.126V10.1l1.782-0.377v1.709l-1.782,0.36v2.79l1.782-0.342v1.674l-1.782,0.378v2.646l-0.756,0.145v-2.628
			l-1.98,0.468v2.971L7.086,20z M7.824,15.193l1.98-0.449v-2.809l-1.98,0.486V15.193z"/>
	</g>
	<g>
		<path d="M16.26,18.361c0.443,0.337,0.972,0.505,1.584,0.505c0.937,0,1.638-0.405,2.106-1.216c0.468-0.81,0.726-2.049,0.773-3.717
			l-0.036-0.035c-0.288,0.539-0.695,0.969-1.224,1.287c-0.528,0.317-1.104,0.477-1.729,0.477c-0.647,0-1.224-0.105-1.728-0.314
			c-0.504-0.211-0.927-0.502-1.269-0.873c-0.343-0.373-0.601-0.822-0.774-1.351s-0.261-1.104-0.261-1.728
			c0-0.612,0.102-1.174,0.306-1.684s0.492-0.948,0.864-1.314c0.372-0.366,0.815-0.651,1.332-0.855
			c0.516-0.204,1.08-0.306,1.691-0.306c0.601,0,1.164,0.093,1.692,0.279s0.99,0.507,1.386,0.963
			c0.396,0.456,0.711,1.077,0.945,1.863c0.234,0.786,0.351,1.785,0.351,2.997c0,2.208-0.351,3.903-1.053,5.085
			c-0.702,1.183-1.827,1.773-3.375,1.773c-1.068,0-1.956-0.271-2.664-0.81c-0.708-0.541-1.11-1.362-1.206-2.467h1.53
			C15.563,17.546,15.815,18.026,16.26,18.361z M20.283,10.389c-0.114-0.349-0.282-0.658-0.505-0.928
			c-0.222-0.27-0.494-0.483-0.818-0.639c-0.324-0.156-0.702-0.234-1.134-0.234c-0.457,0-0.844,0.084-1.161,0.252
			c-0.318,0.168-0.576,0.394-0.774,0.675s-0.342,0.603-0.432,0.963c-0.09,0.359-0.135,0.737-0.135,1.133
			c0,0.349,0.062,0.685,0.188,1.009c0.126,0.323,0.3,0.612,0.522,0.864c0.222,0.252,0.485,0.453,0.792,0.603
			c0.306,0.15,0.645,0.226,1.017,0.226c0.396,0,0.756-0.075,1.08-0.226c0.324-0.149,0.6-0.354,0.828-0.612
			c0.228-0.258,0.401-0.558,0.521-0.899c0.12-0.343,0.181-0.699,0.181-1.071C20.454,11.107,20.396,10.736,20.283,10.389z"/>
	</g>
</g>
</svg>
