<?xml version="1.0" encoding="utf-8"?>
<!-- Generator: Adobe Illustrator 15.1.0, SVG Export Plug-In . SVG Version: 6.00 Build 0)  -->
<!DOCTYPE svg PUBLIC "-//W3C//DTD SVG 1.1 Tiny//EN" "http://www.w3.org/Graphics/SVG/1.1/DTD/svg11-tiny.dtd">
<svg version="1.1" baseProfile="tiny" id="Layer_1" xmlns="http://www.w3.org/2000/svg" xmlns:xlink="http://www.w3.org/1999/xlink"
	 x="0px" y="0px" width="27px" height="27px" viewBox="0 0 27 27" overflow="inherit" xml:space="preserve">
<g>
	<path fill="#FFFFFF" d="M13.5,26.5c-7.168,0-13-5.832-13-13s5.832-13,13-13c7.168,0,13,5.832,13,13S20.668,26.5,13.5,26.5z"/>
	<path fill="#231F20" d="M13.5,1C20.393,1,26,6.607,26,13.5S20.393,26,13.5,26S1,20.393,1,13.5S6.607,1,13.5,1 M13.5,0
		C6.044,0,0,6.044,0,13.5S6.044,27,13.5,27S27,20.956,27,13.5S20.956,0,13.5,0L13.5,0z"/>
</g>
<g>
	<g>
		<path d="M6.168,20.145V5.492h0.63v7.902c0.084-0.156,0.195-0.291,0.333-0.406c0.138-0.113,0.291-0.225,0.459-0.332
			c0.168-0.108,0.366-0.191,0.594-0.252c0.228-0.061,0.468-0.09,0.72-0.09c0.336,0,0.633,0.051,0.891,0.152
			c0.259,0.103,0.486,0.24,0.685,0.414s0.351,0.394,0.459,0.657c0.108,0.265,0.162,0.528,0.162,0.792
			c0,0.492-0.145,1.012-0.433,1.557c-0.287,0.547-0.768,1.102-1.439,1.665c-0.048,0.061-0.145,0.147-0.288,0.261
			c-0.144,0.115-0.3,0.25-0.468,0.405c-0.168,0.156-0.351,0.306-0.549,0.45c-0.198,0.145-0.378,0.285-0.54,0.423
			s-0.294,0.255-0.396,0.351c-0.102,0.097-0.165,0.15-0.189,0.162c-0.252,0.217-0.417,0.36-0.495,0.433
			C6.225,20.107,6.18,20.145,6.168,20.145z M6.798,19.172c0.156-0.18,0.36-0.398,0.612-0.656c0.252-0.258,0.528-0.562,0.828-0.91
			c0.384-0.396,0.648-0.765,0.792-1.106c0.145-0.342,0.216-0.633,0.216-0.873c0-0.312-0.099-0.567-0.297-0.765
			c-0.197-0.198-0.435-0.297-0.711-0.297c-0.228,0-0.429,0.051-0.603,0.152c-0.174,0.103-0.327,0.219-0.459,0.352
			c-0.156,0.144-0.282,0.3-0.378,0.468V19.172z"/>
	</g>
	<g>
		<path d="M13.97,20v-9.145h-3.312V9.632c0.432,0,0.852-0.033,1.26-0.099c0.407-0.066,0.776-0.189,1.106-0.369
			s0.609-0.426,0.837-0.738c0.229-0.312,0.385-0.708,0.469-1.188h1.17V20H13.97z"/>
	</g>
	<g>
		<path d="M20.47,20v-9.145h-3.312V9.632c0.432,0,0.852-0.033,1.26-0.099c0.407-0.066,0.776-0.189,1.106-0.369
			s0.609-0.426,0.837-0.738c0.229-0.312,0.385-0.708,0.469-1.188H22V20H20.47z"/>
	</g>
</g>
</svg>
