<?xml version="1.0" encoding="utf-8"?>
<!-- Generator: Adobe Illustrator 15.1.0, SVG Export Plug-In . SVG Version: 6.00 Build 0)  -->
<!DOCTYPE svg PUBLIC "-//W3C//DTD SVG 1.1 Tiny//EN" "http://www.w3.org/Graphics/SVG/1.1/DTD/svg11-tiny.dtd">
<svg version="1.1" baseProfile="tiny" id="Layer_1" xmlns="http://www.w3.org/2000/svg" xmlns:xlink="http://www.w3.org/1999/xlink"
	 x="0px" y="0px" width="27px" height="27px" viewBox="0 0 27 27" overflow="inherit" xml:space="preserve">
<g>
	<path fill="#FFFFFF" d="M13.5,26.5c-7.168,0-13-5.832-13-13c0-7.168,5.832-13,13-13c7.168,0,13,5.832,13,13
		C26.5,20.668,20.668,26.5,13.5,26.5z"/>
	<path fill="#231F20" d="M13.5,1C20.393,1,26,6.607,26,13.5S20.393,26,13.5,26S1,20.393,1,13.5S6.607,1,13.5,1 M13.5,0
		C6.044,0,0,6.044,0,13.5S6.044,27,13.5,27S27,20.956,27,13.5S20.956,0,13.5,0L13.5,0z"/>
</g>
<g>
	<g>
		<path d="M7.624,22.012V9.82H3.208V8.188c0.576,0,1.136-0.043,1.68-0.132c0.544-0.088,1.036-0.252,1.477-0.492
			C6.804,7.324,7.176,6.996,7.48,6.58c0.304-0.416,0.512-0.944,0.624-1.584h1.56v17.016H7.624z"/>
	</g>
	<g>
		<path d="M15.984,12.316c0.08,0,0.159,0,0.24,0h0.432c0.432,0,0.844-0.061,1.236-0.18c0.392-0.121,0.735-0.297,1.031-0.528
			s0.532-0.524,0.708-0.876s0.265-0.752,0.265-1.2c0-0.912-0.288-1.596-0.864-2.052c-0.576-0.456-1.296-0.684-2.16-0.684
			c-0.544,0-1.02,0.1-1.428,0.3c-0.408,0.2-0.744,0.468-1.008,0.804c-0.265,0.336-0.461,0.728-0.589,1.176
			c-0.128,0.448-0.191,0.92-0.191,1.416h-2.04c0.032-0.816,0.164-1.56,0.396-2.232c0.232-0.672,0.564-1.248,0.996-1.728
			c0.433-0.48,0.973-0.856,1.62-1.128c0.648-0.272,1.396-0.408,2.244-0.408c0.735,0,1.42,0.092,2.052,0.276
			c0.632,0.185,1.18,0.46,1.645,0.828c0.464,0.368,0.828,0.84,1.092,1.416c0.264,0.576,0.396,1.256,0.396,2.04
			c0,0.768-0.224,1.448-0.672,2.04c-0.448,0.593-1.008,1.041-1.68,1.345v0.048c1.04,0.225,1.812,0.712,2.316,1.464
			c0.504,0.753,0.756,1.64,0.756,2.664c0,0.849-0.156,1.597-0.468,2.244c-0.312,0.647-0.732,1.188-1.261,1.62
			c-0.527,0.432-1.148,0.756-1.859,0.972c-0.713,0.216-1.469,0.324-2.269,0.324c-0.864,0-1.647-0.12-2.352-0.36
			s-1.305-0.596-1.8-1.068c-0.496-0.471-0.876-1.051-1.141-1.739c-0.264-0.688-0.388-1.472-0.372-2.353h2.04
			c0.032,1.104,0.352,2.004,0.96,2.7S15.752,20.5,16.92,20.5c0.496,0,0.968-0.076,1.416-0.229c0.448-0.151,0.84-0.367,1.176-0.647
			s0.604-0.624,0.805-1.032c0.199-0.408,0.3-0.867,0.3-1.379c0-0.529-0.096-0.996-0.288-1.404s-0.448-0.752-0.768-1.032
			c-0.32-0.28-0.7-0.487-1.141-0.624c-0.44-0.136-0.916-0.204-1.428-0.204c-0.432,0-0.84,0.024-1.224,0.071v-1.728
			C15.848,12.309,15.92,12.316,15.984,12.316z"/>
	</g>
</g>
</svg>
