<?xml version="1.0" encoding="utf-8"?>
<!-- Generator: Adobe Illustrator 15.1.0, SVG Export Plug-In . SVG Version: 6.00 Build 0)  -->
<!DOCTYPE svg PUBLIC "-//W3C//DTD SVG 1.1 Tiny//EN" "http://www.w3.org/Graphics/SVG/1.1/DTD/svg11-tiny.dtd">
<svg version="1.1" baseProfile="tiny" id="Layer_1" xmlns="http://www.w3.org/2000/svg" xmlns:xlink="http://www.w3.org/1999/xlink"
	 x="0px" y="0px" width="27px" height="27px" viewBox="0 0 27 27" overflow="inherit" xml:space="preserve">
<g>
	<path fill="#FFFFFF" d="M13.5,26.5c-7.168,0-13-5.832-13-13s5.832-13,13-13c7.168,0,13,5.832,13,13S20.668,26.5,13.5,26.5z"/>
	<path fill="#231F20" d="M13.5,1C20.393,1,26,6.607,26,13.5S20.393,26,13.5,26S1,20.393,1,13.5S6.607,1,13.5,1 M13.5,0
		C6.044,0,0,6.044,0,13.5S6.044,27,13.5,27S27,20.956,27,13.5S20.956,0,13.5,0L13.5,0z"/>
</g>
<g>
	<path d="M8.148,8.62C8.372,7.884,8.72,7.248,9.192,6.712c0.472-0.536,1.06-0.956,1.764-1.26c0.704-0.304,1.504-0.456,2.4-0.456
		c0.735,0,1.428,0.108,2.075,0.324c0.648,0.216,1.213,0.528,1.692,0.936c0.48,0.408,0.86,0.916,1.14,1.524
		c0.28,0.608,0.421,1.312,0.421,2.112c0,0.753-0.116,1.416-0.349,1.992s-0.54,1.092-0.924,1.548s-0.824,0.868-1.32,1.236
		s-1.008,0.72-1.536,1.056c-0.527,0.32-1.056,0.636-1.584,0.948c-0.527,0.312-1.012,0.645-1.451,0.996
		c-0.44,0.352-0.816,0.732-1.128,1.14c-0.312,0.408-0.517,0.876-0.612,1.404h8.736v1.8H7.404c0.08-1.008,0.26-1.867,0.54-2.58
		C8.224,18.72,8.58,18.1,9.012,17.572c0.433-0.528,0.92-0.992,1.465-1.393c0.543-0.4,1.111-0.775,1.703-1.128
		c0.721-0.448,1.353-0.86,1.896-1.235c0.544-0.377,0.996-0.757,1.355-1.141c0.36-0.385,0.633-0.8,0.816-1.248
		c0.184-0.447,0.276-0.968,0.276-1.56c0-0.464-0.089-0.884-0.265-1.26s-0.412-0.7-0.708-0.972c-0.296-0.272-0.644-0.48-1.044-0.624
		c-0.399-0.144-0.824-0.216-1.271-0.216c-0.593,0-1.101,0.124-1.524,0.372C11.288,7.416,10.94,7.74,10.668,8.14
		c-0.272,0.4-0.468,0.852-0.588,1.356s-0.172,1.012-0.156,1.524h-2.04C7.836,10.156,7.924,9.356,8.148,8.62z"/>
</g>
</svg>
