<?xml version="1.0" encoding="utf-8"?>
<!-- Generator: Adobe Illustrator 15.1.0, SVG Export Plug-In . SVG Version: 6.00 Build 0)  -->
<!DOCTYPE svg PUBLIC "-//W3C//DTD SVG 1.1 Tiny//EN" "http://www.w3.org/Graphics/SVG/1.1/DTD/svg11-tiny.dtd">
<svg version="1.1" baseProfile="tiny" id="Layer_1" xmlns="http://www.w3.org/2000/svg" xmlns:xlink="http://www.w3.org/1999/xlink"
	 x="0px" y="0px" width="27px" height="27px" viewBox="0 0 27 27" overflow="inherit" xml:space="preserve">
<g>
	<path fill="#FFFFFF" d="M13.5,26.5c-7.168,0-13-5.832-13-13s5.832-13,13-13c7.168,0,13,5.832,13,13S20.668,26.5,13.5,26.5z"/>
	<path fill="#231F20" d="M13.5,1C20.393,1,26,6.607,26,13.5S20.393,26,13.5,26S1,20.393,1,13.5S6.607,1,13.5,1 M13.5,0
		C6.044,0,0,6.044,0,13.5S6.044,27,13.5,27S27,20.956,27,13.5S20.956,0,13.5,0L13.5,0z"/>
</g>
<g>
	<path d="M11.244,7.083l-0.912,4.896l0.048,0.048c0.368-0.416,0.844-0.723,1.429-0.924c0.583-0.199,1.163-0.3,1.739-0.3
		c0.752,0,1.464,0.12,2.137,0.36c0.672,0.24,1.256,0.604,1.752,1.092c0.495,0.488,0.888,1.096,1.176,1.824s0.432,1.58,0.432,2.556
		c0,0.72-0.124,1.42-0.372,2.101c-0.248,0.68-0.62,1.283-1.116,1.812s-1.115,0.948-1.859,1.26s-1.612,0.468-2.604,0.468
		c-0.735,0-1.428-0.107-2.075-0.324c-0.648-0.215-1.221-0.527-1.717-0.936S8.412,20.1,8.124,19.492
		c-0.288-0.608-0.44-1.297-0.456-2.064h2.04c0.032,0.432,0.14,0.836,0.324,1.212c0.184,0.376,0.432,0.704,0.744,0.983
		c0.312,0.281,0.68,0.496,1.104,0.648s0.892,0.229,1.404,0.229c0.479,0,0.939-0.084,1.38-0.252c0.439-0.168,0.824-0.42,1.152-0.756
		c0.327-0.336,0.588-0.756,0.779-1.26c0.192-0.505,0.288-1.093,0.288-1.765c0-0.56-0.092-1.076-0.275-1.548
		c-0.185-0.473-0.444-0.88-0.78-1.225c-0.336-0.344-0.74-0.611-1.212-0.804c-0.473-0.192-0.996-0.288-1.572-0.288
		c-0.672,0-1.269,0.148-1.788,0.444s-0.98,0.685-1.38,1.164l-1.752-0.097l1.584-8.832h8.4v1.8H11.244z"/>
</g>
</svg>
