<?xml version="1.0" encoding="utf-8"?>
<!-- Generator: Adobe Illustrator 15.1.0, SVG Export Plug-In . SVG Version: 6.00 Build 0)  -->
<!DOCTYPE svg PUBLIC "-//W3C//DTD SVG 1.1 Tiny//EN" "http://www.w3.org/Graphics/SVG/1.1/DTD/svg11-tiny.dtd">
<svg version="1.1" baseProfile="tiny" id="Layer_1" xmlns="http://www.w3.org/2000/svg" xmlns:xlink="http://www.w3.org/1999/xlink"
	 x="0px" y="0px" width="27px" height="27px" viewBox="0 0 27 27" overflow="inherit" xml:space="preserve">
<g>
	<path fill="#FFFFFF" d="M13.5,26.5c-7.168,0-13-5.832-13-13s5.832-13,13-13c7.168,0,13,5.832,13,13S20.668,26.5,13.5,26.5z"/>
	<path fill="#231F20" d="M13.5,1C20.393,1,26,6.607,26,13.5S20.393,26,13.5,26S1,20.393,1,13.5S6.607,1,13.5,1 M13.5,0
		C6.044,0,0,6.044,0,13.5S6.044,27,13.5,27S27,20.956,27,13.5S20.956,0,13.5,0L13.5,0z"/>
</g>
<g>
	<path d="M15.876,7.492c-0.496-0.464-1.151-0.696-1.968-0.696c-0.864,0-1.561,0.212-2.088,0.636c-0.528,0.424-0.94,0.96-1.236,1.608
		s-0.5,1.348-0.612,2.1c-0.111,0.753-0.176,1.456-0.191,2.112L9.828,13.3c0.48-0.784,1.076-1.353,1.788-1.704
		s1.532-0.527,2.46-0.527c0.816,0,1.548,0.14,2.196,0.42c0.647,0.279,1.191,0.668,1.632,1.164c0.439,0.496,0.78,1.08,1.02,1.752
		c0.24,0.672,0.36,1.4,0.36,2.184c0,0.624-0.096,1.271-0.288,1.943s-0.508,1.285-0.948,1.836c-0.44,0.553-1.023,1.008-1.752,1.369
		c-0.728,0.359-1.628,0.539-2.7,0.539c-1.264,0-2.279-0.256-3.048-0.768c-0.768-0.512-1.359-1.168-1.775-1.969
		C8.355,18.74,8.08,17.859,7.944,16.9c-0.137-0.961-0.204-1.889-0.204-2.785c0-1.168,0.1-2.299,0.3-3.396
		c0.2-1.096,0.54-2.068,1.021-2.916c0.479-0.848,1.119-1.528,1.92-2.04c0.8-0.512,1.808-0.768,3.023-0.768
		c1.408,0,2.528,0.372,3.36,1.116s1.312,1.82,1.439,3.228h-2.04C16.668,8.572,16.372,7.956,15.876,7.492z M12.18,13.168
		c-0.432,0.2-0.8,0.472-1.104,0.816c-0.304,0.344-0.532,0.752-0.684,1.223c-0.152,0.473-0.229,0.973-0.229,1.5
		c0,0.529,0.08,1.025,0.24,1.488c0.159,0.465,0.388,0.864,0.684,1.2c0.296,0.337,0.664,0.604,1.104,0.804
		c0.439,0.201,0.939,0.301,1.5,0.301c0.56,0,1.052-0.1,1.476-0.301c0.424-0.199,0.78-0.476,1.068-0.828
		c0.288-0.352,0.508-0.756,0.66-1.211c0.151-0.457,0.228-0.932,0.228-1.428c0-0.529-0.068-1.029-0.204-1.5
		c-0.136-0.473-0.348-0.881-0.636-1.225s-0.648-0.62-1.08-0.828c-0.432-0.207-0.936-0.312-1.512-0.312S12.612,12.968,12.18,13.168z"
		/>
</g>
</svg>
