<?xml version="1.0" encoding="utf-8"?>
<!-- Generator: Adobe Illustrator 15.1.0, SVG Export Plug-In . SVG Version: 6.00 Build 0)  -->
<!DOCTYPE svg PUBLIC "-//W3C//DTD SVG 1.1 Tiny//EN" "http://www.w3.org/Graphics/SVG/1.1/DTD/svg11-tiny.dtd">
<svg version="1.1" baseProfile="tiny" id="Layer_1" xmlns="http://www.w3.org/2000/svg" xmlns:xlink="http://www.w3.org/1999/xlink"
	 x="0px" y="0px" width="27px" height="27px" viewBox="0 0 27 27" overflow="inherit" xml:space="preserve">
<g>
	<path fill="#FFFFFF" d="M13.5,26.5c-7.168,0-13-5.832-13-13s5.832-13,13-13c7.168,0,13,5.832,13,13S20.668,26.5,13.5,26.5z"/>
	<path fill="#231F20" d="M13.5,1C20.393,1,26,6.607,26,13.5S20.393,26,13.5,26S1,20.393,1,13.5S6.607,1,13.5,1 M13.5,0
		C6.044,0,0,6.044,0,13.5S6.044,27,13.5,27S27,20.956,27,13.5S20.956,0,13.5,0L13.5,0z"/>
</g>
<g>
	<path d="M12.276,12.316c0.08,0,0.159,0,0.24,0h0.432c0.432,0,0.844-0.061,1.236-0.181c0.392-0.12,0.735-0.296,1.031-0.528
		c0.296-0.231,0.532-0.523,0.708-0.875c0.176-0.353,0.265-0.752,0.265-1.201c0-0.912-0.288-1.596-0.864-2.052
		c-0.576-0.456-1.296-0.684-2.16-0.684c-0.544,0-1.02,0.1-1.428,0.3c-0.408,0.2-0.744,0.468-1.008,0.804
		c-0.265,0.336-0.461,0.728-0.589,1.176c-0.128,0.448-0.191,0.92-0.191,1.417h-2.04C7.94,9.676,8.072,8.932,8.304,8.26
		C8.536,7.588,8.868,7.012,9.3,6.532c0.433-0.48,0.973-0.856,1.62-1.128c0.648-0.272,1.396-0.408,2.244-0.408
		c0.735,0,1.42,0.092,2.052,0.276c0.632,0.185,1.18,0.46,1.645,0.828c0.464,0.368,0.828,0.84,1.092,1.416
		c0.264,0.576,0.396,1.256,0.396,2.04c0,0.769-0.224,1.448-0.672,2.04s-1.008,1.04-1.68,1.344v0.049
		c1.04,0.224,1.812,0.711,2.316,1.463c0.504,0.753,0.756,1.641,0.756,2.664c0,0.849-0.156,1.597-0.468,2.244
		c-0.312,0.648-0.732,1.188-1.261,1.62c-0.527,0.433-1.148,0.757-1.859,0.972c-0.713,0.217-1.469,0.324-2.269,0.324
		c-0.864,0-1.647-0.119-2.352-0.359s-1.305-0.596-1.8-1.068c-0.496-0.472-0.876-1.052-1.141-1.74
		c-0.264-0.688-0.388-1.472-0.372-2.352h2.04c0.032,1.104,0.352,2.004,0.96,2.699c0.608,0.697,1.496,1.045,2.664,1.045
		c0.496,0,0.968-0.076,1.416-0.229s0.84-0.367,1.176-0.648c0.336-0.279,0.604-0.623,0.805-1.031c0.199-0.408,0.3-0.867,0.3-1.38
		c0-0.528-0.096-0.996-0.288-1.404c-0.192-0.407-0.448-0.752-0.768-1.032c-0.32-0.279-0.7-0.487-1.141-0.623
		c-0.44-0.137-0.916-0.205-1.428-0.205c-0.432,0-0.84,0.024-1.224,0.072v-1.729C12.14,12.308,12.212,12.316,12.276,12.316z"/>
</g>
</svg>
